<svg width="25" height="25" viewBox="0 0 25 25" fill="none" xmlns="http://www.w3.org/2000/svg">
<path d="M21.9584 7.29167C21.7784 6.97981 21.5206 6.71993 21.2103 6.53737C20.8999 6.35481 20.5476 6.2558 20.1875 6.25H6.85421L6.25004 3.89583C6.189 3.66858 6.05281 3.46869 5.86366 3.32872C5.67451 3.18875 5.44354 3.11695 5.20837 3.125H3.12504C2.84877 3.125 2.58382 3.23475 2.38847 3.4301C2.19312 3.62545 2.08337 3.8904 2.08337 4.16667C2.08337 4.44293 2.19312 4.70789 2.38847 4.90324C2.58382 5.09859 2.84877 5.20833 3.12504 5.20833H4.41671L7.29171 15.8958C7.35275 16.1231 7.48894 16.323 7.67809 16.4629C7.86724 16.6029 8.0982 16.6747 8.33337 16.6667H17.7084C17.9007 16.6661 18.0892 16.6122 18.2528 16.5111C18.4165 16.41 18.5489 16.2655 18.6355 16.0937L22.0521 9.26042C22.2002 8.95002 22.2692 8.60778 22.2528 8.26425C22.2364 7.92073 22.1353 7.58659 21.9584 7.29167ZM17.0625 14.5833H9.12504L7.42712 8.33333H20.1875L17.0625 14.5833Z" fill="black"/>
<path d="M7.8125 21.875C8.67544 21.875 9.375 21.1754 9.375 20.3125C9.375 19.4496 8.67544 18.75 7.8125 18.75C6.94956 18.75 6.25 19.4496 6.25 20.3125C6.25 21.1754 6.94956 21.875 7.8125 21.875Z" fill="black"/>
<path d="M18.2291 21.875C19.0921 21.875 19.7916 21.1754 19.7916 20.3125C19.7916 19.4496 19.0921 18.75 18.2291 18.75C17.3662 18.75 16.6666 19.4496 16.6666 20.3125C16.6666 21.1754 17.3662 21.875 18.2291 21.875Z" fill="black"/>
</svg>
