<svg width="43" height="43" viewBox="0 0 43 43" fill="none" xmlns="http://www.w3.org/2000/svg">
<path d="M21.5 24.1875C20.1712 24.1875 18.8722 23.7935 17.7673 23.0552C16.6624 22.3169 15.8012 21.2676 15.2927 20.0399C14.7842 18.8122 14.6511 17.4613 14.9104 16.158C15.1696 14.8547 15.8095 13.6575 16.7491 12.7179C17.6888 11.7782 18.8859 11.1383 20.1892 10.8791C21.4926 10.6199 22.8435 10.7529 24.0712 11.2614C25.2989 11.77 26.3482 12.6311 27.0864 13.736C27.8247 14.8409 28.2188 16.1399 28.2188 17.4688C28.2166 19.25 27.5081 20.9577 26.2485 22.2173C24.989 23.4768 23.2813 24.1854 21.5 24.1875ZM21.5 13.4375C20.7027 13.4375 19.9233 13.6739 19.2604 14.1169C18.5974 14.5599 18.0807 15.1894 17.7756 15.9261C17.4705 16.6627 17.3907 17.4732 17.5462 18.2552C17.7018 19.0372 18.0857 19.7555 18.6495 20.3193C19.2133 20.8831 19.9316 21.267 20.7135 21.4225C21.4955 21.5781 22.3061 21.4983 23.0427 21.1931C23.7793 20.888 24.4089 20.3713 24.8519 19.7084C25.2948 19.0455 25.5313 18.2661 25.5313 17.4688C25.5302 16.3999 25.1051 15.3752 24.3493 14.6194C23.5936 13.8636 22.5688 13.4386 21.5 13.4375Z" fill="black"/>
<path d="M21.5 40.3125L10.1641 26.9435C10.0066 26.7428 9.85075 26.5408 9.69652 26.3375C7.76015 23.7868 6.71407 20.6712 6.71877 17.4688C6.71877 13.5485 8.27607 9.78885 11.0481 7.01683C13.8201 4.24481 17.5798 2.6875 21.5 2.6875C25.4202 2.6875 29.1799 4.24481 31.9519 7.01683C34.724 9.78885 36.2813 13.5485 36.2813 17.4688C36.286 20.6698 35.2404 23.7839 33.3049 26.3335L33.3035 26.3375C33.3035 26.3375 32.9004 26.8669 32.8399 26.9382L21.5 40.3125ZM11.8411 24.7183C11.8438 24.7183 12.1556 25.1322 12.2268 25.2208L21.5 36.1576L30.7853 25.2061C30.8445 25.1322 31.1589 24.7156 31.1602 24.7143C32.742 22.6302 33.5969 20.0851 33.5938 17.4688C33.5938 14.2613 32.3196 11.1852 30.0516 8.91718C27.7836 6.64916 24.7075 5.375 21.5 5.375C18.2926 5.375 15.2165 6.64916 12.9484 8.91718C10.6804 11.1852 9.40627 14.2613 9.40627 17.4688C9.40345 20.0867 10.2592 22.6333 11.8425 24.7183H11.8411Z" fill="black"/>
</svg>
