<svg height="120px" viewBox="0 0 480 480.168" width="120px"> <g> <path d="m479.78125 44.167969c-2.261719-11.726563-12.597656-20.148438-24.539062-20h-116.542969c-17.382813.273437-32.640625 11.648437-37.863281 28.230469-3.539063 10.550781-9.769532 19.996093-18.070313 27.402343-2.164063 1.898438-3.136719 4.808594-2.554687 7.625.578124 2.816407 2.628906 5.105469 5.363281 5.992188s5.738281.238281 7.863281-1.699219c10.378906-9.257812 18.160156-21.070312 22.574219-34.261719 2.976562-10.101562 12.160156-17.101562 22.6875-17.289062h116.542969c4.109374-.152344 7.761718 2.605469 8.738281 6.601562.414062 2.328125-.226563 4.722657-1.746094 6.539063-1.519531 1.8125-3.765625 2.859375-6.132813 2.859375h-48c-4.421874 0-8 3.582031-8 8s3.578126 8 8 8c2.367188 0 4.613282 1.046875 6.132813 2.859375 1.519531 1.816406 2.160156 4.210937 1.746094 6.539062-.976563 3.996094-4.628907 6.753906-8.738281 6.601563h-47.140626c-4.421874 0-8 3.582031-8 8s3.578126 8 8 8c2.367188 0 4.613282 1.046875 6.132813 2.859375 1.519531 1.816406 2.160156 4.210937 1.746094 6.539062-.976563 3.996094-4.628907 6.753906-8.738281 6.601563h-47.140626c-3.117187-.003907-5.953124 1.804687-7.261718 4.632812-1.3125 2.824219-.863282 6.15625 1.148437 8.535157 2.054688 2.4375 2.832031 5.703124 2.09375 8.800781-.734375 3.101562-2.898437 5.667969-5.832031 6.917969l-17.277344 7.335937c-4.070312 1.730469-5.96875 6.429687-4.242187 10.496094 1.730469 4.070312 6.429687 5.96875 10.496093 4.242187l17.28125-7.34375c7.632813-3.203125 13.261719-9.875 15.136719-17.9375.753907-3.167968.910157-6.453125.457031-9.679687h35.109376c11.941406.148437 22.277343-8.273438 24.535156-20 .664062-4.023438.300781-8.152344-1.054688-12h24.519532c11.941406.148437 22.277343-8.273438 24.535156-20 .664062-4.023438.300781-8.152344-1.054688-12h25.410156c7.066407.003906 13.777344-3.105469 18.339844-8.503907 4.5625-5.394531 6.515625-12.527343 5.339844-19.496093zm0 0" data-original="#000000" class="active-path" data-old_color="#000000" fill="#000000"/> <path d="m97.476562 104.167969c-1.355468 3.847656-1.71875 7.976562-1.058593 12 2.261719 11.726562 12.597656 20.148437 24.539062 20h35.144531c-.445312 3.230469-.28125 6.511719.484376 9.679687 1.878906 8.066406 7.511718 14.738282 15.144531 17.945313l17.273437 7.335937c4.070313 1.726563 8.769532-.171875 10.496094-4.242187 1.726562-4.066407-.171875-8.765625-4.242188-10.496094l-17.269531-7.328125c-2.933593-1.246094-5.101562-3.816406-5.84375-6.917969-.738281-3.101562.042969-6.371093 2.097657-8.808593 2.019531-2.382813 2.464843-5.722657 1.144531-8.550782-1.320313-2.828125-4.164063-4.632812-7.285157-4.617187h-47.144531c-4.109375.152343-7.761719-2.605469-8.738281-6.601563-.414062-2.328125.226562-4.722656 1.746094-6.539062 1.519531-1.8125 3.765625-2.859375 6.136718-2.859375 4.417969 0 8-3.582031 8-8s-3.582031-8-8-8h-47.144531c-4.109375.152343-7.761719-2.605469-8.738281-6.601563-.414062-2.328125.226562-4.722656 1.746094-6.539062 1.519531-1.8125 3.765625-2.859375 6.136718-2.859375 4.417969 0 8-3.582031 8-8s-3.582031-8-8-8h-48c-2.371093 0-4.617187-1.046875-6.136718-2.859375-1.519532-1.816406-2.160156-4.210938-1.746094-6.539063.976562-3.996093 4.628906-6.753906 8.738281-6.601562h116.542969c10.523438.1875 19.707031 7.183593 22.679688 17.28125 4.417968 13.191406 12.203124 25.007812 22.585937 34.269531 2.121094 1.9375 5.125 2.585938 7.859375 1.699219s4.785156-3.175781 5.363281-5.992188c.582031-2.816406-.390625-5.726562-2.550781-7.625-8.308594-7.410156-14.539062-16.855469-18.082031-27.410156-5.21875-16.578125-20.472657-27.953125-37.855469-28.222656h-116.542969c-11.941406-.148438-22.277343 8.273437-24.539062 20-1.175781 6.96875.777343 14.101562 5.339843 19.496093 4.566407 5.398438 11.273438 8.507813 18.34375 8.503907h25.375c-1.355468 3.847656-1.71875 7.976562-1.058593 12 2.261719 11.726562 12.597656 20.148437 24.539062 20zm0 0" data-original="#000000" class="active-path" data-old_color="#000000" fill="#000000"/> <path d="m366.082031 184.167969h-53.980469c-13.257812 0-24 10.746093-24 24 0 13.253906 10.742188 24 24 24h55.140626c4.109374-.152344 7.761718 2.605469 8.738281 6.601562.414062 2.328125-.226563 4.722657-1.746094 6.539063-1.519531 1.8125-3.765625 2.859375-6.132813 2.859375h-104v-176.167969c13.773438-10.332031 19.390626-28.316406 13.945313-44.648438-5.445313-16.335937-20.730469-27.351562-37.945313-27.351562-17.21875 0-32.503906 11.015625-37.949218 27.351562-5.445313 16.332032.171875 34.316407 13.949218 44.648438v176.167969h-104c-2.371093 0-4.617187-1.046875-6.136718-2.859375-1.519532-1.816406-2.160156-4.210938-1.746094-6.539063.976562-3.996093 4.628906-6.753906 8.738281-6.601562h55.144531c13.253907 0 24-10.746094 24-24 0-13.253907-10.746093-24-24-24h-53.984374c-30.746094-.339844-56.3125 23.582031-58.015626 54.28125-.46875 15.148437 5.226563 29.835937 15.78125 40.714843 10.550782 10.875 25.0625 17.011719 40.21875 17.003907h8.621094c-.324218 2.078125-.523437 4.175781-.597656 6.28125-.71875 22.824219 12.5625 43.777343 33.511719 52.871093-1.144531 4.769532-1.664063 9.664063-1.535157 14.566407 1.703126 30.699219 27.269532 54.621093 58.015626 54.28125h5.984374v32c0 13.253906 10.742188 24 24 24 13.253907 0 24-10.746094 24-24v-32h5.980469c30.746094.339843 56.3125-23.582031 58.019531-54.28125.121094-4.84375-.382812-9.683594-1.496093-14.398438 20.9375-9.1875 34.195312-30.175781 33.496093-53.03125-.121093-2.109375-.363281-4.210937-.730468-6.289062h8.730468c15.152344.007812 29.664063-6.128907 40.21875-17.003907 10.550782-10.878906 16.246094-25.566406 15.78125-40.714843-1.707031-30.699219-27.273437-54.621094-58.019531-54.28125zm-137.980469-123.351563c-7.425781-4.222656-12.007812-12.109375-12-20.648437 0-13.253907 10.742188-24 24-24 13.253907 0 24 10.746093 24 24 .003907 8.539062-4.578124 16.425781-12 20.648437-2.472656 1.425782-3.996093 4.058594-4 6.910156v180.441407h-16v-180.441407c-.007812-2.851562-1.53125-5.484374-4-6.910156zm-116 219.351563c-10.828124.003906-21.191406-4.378907-28.730468-12.148438-7.539063-7.769531-11.605469-18.261719-11.269532-29.082031 1.382813-22.082031 19.894532-39.164062 42.015626-38.769531h53.984374c4.417969 0 8 3.582031 8 8s-3.582031 8-8 8h-55.144531c-11.941406-.148438-22.277343 8.273437-24.539062 20-1.175781 6.96875.777343 14.101562 5.339843 19.496093 4.566407 5.398438 11.273438 8.507813 18.34375 8.503907h25.597657c-4.878907 4.589843-8.910157 10.007812-11.902344 16zm64.855469 32c-4.109375.152343-7.761719-2.605469-8.738281-6.601563-.414062-2.328125.226562-4.722656 1.746094-6.539062 1.519531-1.8125 3.765625-2.859375 6.136718-2.859375h40v16zm127.144531-16c2.367188 0 4.613282 1.046875 6.132813 2.859375 1.519531 1.816406 2.160156 4.210937 1.746094 6.539062-.976563 3.996094-4.628907 6.753906-8.738281 6.601563h-39.140626v-16zm-56 16h-16v-16h16zm0 144c0 4.417969-3.582031 8-8 8-4.421874 0-8-3.582031-8-8v-32h16zm-40-80c-2.371093 0-4.617187-1.046875-6.136718-2.859375-1.519532-1.816406-2.160156-4.210938-1.746094-6.539063.976562-3.996093 4.628906-6.753906 8.738281-6.601562h7.144531v16zm24 0v-16h16v16zm39.140626-16c4.109374-.152344 7.761718 2.605469 8.738281 6.601562.414062 2.328125-.226563 4.722657-1.746094 6.539063-1.519531 1.8125-3.765625 2.859375-6.132813 2.859375h-8v-16zm40.859374 9.230469c-1.386718 22.082031-19.898437 39.164062-42.019531 38.769531h-7.453125c1.960938-5.152344 1.960938-10.847657 0-16h9.472656c7.066407.003906 13.777344-3.105469 18.339844-8.503907 4.5625-5.394531 6.515625-12.527343 5.339844-19.496093-.230469-1.363281-.585938-2.703125-1.066406-4h9.386718c2.328126-.015625 4.65625-.171875 6.964844-.472657.742188 3.179688 1.089844 6.441407 1.035156 9.703126zm32-66.460938c.332032 10.820312-3.734374 21.3125-11.273437 29.082031s-17.902344 12.152344-28.726563 12.148438h-95.144531c-11.941406-.148438-22.277343 8.273437-24.539062 20-1.175781 6.96875.777343 14.101562 5.339843 19.496093 4.566407 5.398438 11.273438 8.507813 18.34375 8.503907h32c4.417969 0 8 3.582031 8 8s-3.582031 8-8 8h-29.984374c-22.121094.394531-40.632813-16.6875-42.015626-38.769531-.335937-10.820313 3.730469-21.3125 11.269532-29.082032 7.539062-7.769531 17.902344-12.152344 28.730468-12.148437h95.140626c11.941406.148437 22.277343-8.273438 24.539062-20 .625-4.035157.214844-8.164063-1.1875-12h16.601562c.511719 2.222656.816407 4.488281.90625 6.769531zm52.734376-34.921875c-7.515626 7.804687-17.898438 12.199219-28.734376 12.152344h-192c-7.070312-.003907-13.777343 3.105469-18.34375 8.503906-4.5625 5.394531-6.515624 12.527344-5.339843 19.496094 1.71875 9.21875 8.601562 16.613281 17.671875 18.984375-.726563.679687-1.484375 1.328125-2.183594 2.046875-3.273438 3.398437-6.109375 7.199219-8.4375 11.304687-14.671875-6.640625-23.898438-21.472656-23.367188-37.566406 1.382813-22.082031 19.894532-39.164062 42.015626-38.769531h189.984374c7.066407.003906 13.777344-3.105469 18.339844-8.503907 4.5625-5.394531 6.515625-12.527343 5.339844-19.496093-2.261719-11.726563-12.597656-20.148438-24.539062-20h-55.140626c-4.421874 0-8-3.582031-8-8s3.578126-8 8-8h53.980469c22.121094-.394531 40.632813 16.6875 42.019531 38.769531.363282 10.828125-3.714843 21.332031-11.289062 29.078125zm0 0" data-original="#000000" class="active-path" data-old_color="#000000" fill="#00000"/> </g> </svg>