<svg width="24" height="24" viewBox="0 0 24 24" fill="none" xmlns="http://www.w3.org/2000/svg">
<path d="M1.19995 8.4684V17.4C1.19995 18.3548 1.57924 19.2705 2.25437 19.9456C2.9295 20.6207 3.84517 21 4.79995 21H19.2C20.1547 21 21.0704 20.6207 21.7455 19.9456C22.4207 19.2705 22.8 18.3548 22.8 17.4V6.6C22.8 5.64522 22.4207 4.72955 21.7455 4.05442C21.0704 3.37928 20.1547 3 19.2 3H4.79995C3.84517 3 2.9295 3.37928 2.25437 4.05442C1.57924 4.72955 1.19995 5.64522 1.19995 6.6V8.4684ZM4.79995 4.8H19.2C19.6773 4.8 20.1352 4.98964 20.4727 5.32721C20.8103 5.66477 21 6.12261 21 6.6V7.932L12 12.7776L2.99995 7.932V6.6C2.99995 6.12261 3.18959 5.66477 3.52716 5.32721C3.86472 4.98964 4.32256 4.8 4.79995 4.8V4.8ZM2.99995 9.9768L11.5734 14.592C11.7045 14.6626 11.851 14.6995 12 14.6995C12.1489 14.6995 12.2954 14.6626 12.4266 14.592L21 9.9768V17.4C21 17.8774 20.8103 18.3352 20.4727 18.6728C20.1352 19.0104 19.6773 19.2 19.2 19.2H4.79995C4.32256 19.2 3.86472 19.0104 3.52716 18.6728C3.18959 18.3352 2.99995 17.8774 2.99995 17.4V9.9768Z" fill="black"/>
</svg>
