<svg width="43" height="43" viewBox="0 0 43 43" fill="none" xmlns="http://www.w3.org/2000/svg">
<path d="M36.9531 13.0176H30.7551C31.3262 12.1189 31.6621 11.0523 31.6621 9.91016C31.6621 6.71455 29.0628 4.11523 25.8672 4.11523C24.1287 4.11523 22.5624 4.88789 21.5 6.10566C20.4376 4.88789 18.8713 4.11523 17.1328 4.11523C13.9372 4.11523 11.3379 6.71455 11.3379 9.91016C11.3379 11.0523 11.6696 12.1189 12.2449 13.0176H6.04688C5.30361 13.0176 4.70312 13.6181 4.70312 14.3613V22.7598C4.70312 22.9445 4.8543 23.0957 5.03906 23.0957H6.71875V37.541C6.71875 38.2843 7.31924 38.8848 8.0625 38.8848H34.9375C35.6808 38.8848 36.2812 38.2843 36.2812 37.541V23.0957H37.9609C38.1457 23.0957 38.2969 22.9445 38.2969 22.7598V14.3613C38.2969 13.6181 37.6964 13.0176 36.9531 13.0176ZM22.9277 9.91016C22.9277 8.28926 24.2463 6.9707 25.8672 6.9707C27.4881 6.9707 28.8066 8.28926 28.8066 9.91016C28.8066 11.5311 27.4881 12.8496 25.8672 12.8496H22.9277V9.91016ZM17.1328 6.9707C18.7537 6.9707 20.0723 8.28926 20.0723 9.91016V12.8496H17.1328C15.5119 12.8496 14.1934 11.5311 14.1934 9.91016C14.1934 8.28926 15.5119 6.9707 17.1328 6.9707ZM7.55859 20.2402V15.873H20.0723V20.2402H7.55859ZM9.57422 23.0957H20.0723V36.0293H9.57422V23.0957ZM33.4258 36.0293H22.9277V23.0957H33.4258V36.0293ZM35.4414 20.2402H22.9277V15.873H35.4414V20.2402Z" fill="black"/>
</svg>
