<svg width="24" height="24" viewBox="0 0 24 24" fill="none" xmlns="http://www.w3.org/2000/svg">
<path d="M10.146 3.248C10.2954 2.87871 10.5517 2.56246 10.882 2.33977C11.2124 2.11709 11.6017 1.99812 12 1.99812C12.3984 1.99812 12.7877 2.11709 13.118 2.33977C13.4483 2.56246 13.7046 2.87871 13.854 3.248C15.3328 3.65468 16.6371 4.53556 17.5668 5.75534C18.4964 6.97511 19 8.46634 19 10V14.697L20.832 17.445C20.9325 17.5956 20.9902 17.7707 20.999 17.9515C21.0078 18.1323 20.9673 18.3121 20.8819 18.4718C20.7965 18.6314 20.6694 18.7648 20.514 18.8579C20.3587 18.9509 20.1811 19 20 19H15.465C15.3446 19.8331 14.9281 20.5949 14.2917 21.1459C13.6554 21.6969 12.8418 22.0002 12 22.0002C11.1583 22.0002 10.3447 21.6969 9.70833 21.1459C9.07197 20.5949 8.65543 19.8331 8.53503 19H4.00003C3.81898 19 3.64133 18.9509 3.48602 18.8579C3.33071 18.7648 3.20356 18.6314 3.11815 18.4718C3.03274 18.3121 2.99227 18.1323 3.00106 17.9515C3.00984 17.7707 3.06755 17.5956 3.16803 17.445L5.00003 14.697V10C5.00003 6.776 7.18003 4.06 10.146 3.248ZM10.586 19C10.6893 19.2926 10.8808 19.5461 11.1342 19.7253C11.3875 19.9046 11.6902 20.0008 12.0005 20.0008C12.3109 20.0008 12.6136 19.9046 12.8669 19.7253C13.1202 19.5461 13.3117 19.2926 13.415 19H10.585H10.586ZM12 5C10.6739 5 9.40218 5.52678 8.46449 6.46447C7.52681 7.40215 7.00003 8.67392 7.00003 10V15C7.00007 15.1975 6.94161 15.3907 6.83203 15.555L5.86903 17H18.13L17.167 15.555C17.0578 15.3905 16.9997 15.1974 17 15V10C17 8.67392 16.4732 7.40215 15.5356 6.46447C14.5979 5.52678 13.3261 5 12 5V5Z" fill="black"/>
</svg>
