<svg width="43" height="43" viewBox="0 0 43 43" fill="none" xmlns="http://www.w3.org/2000/svg">
<path d="M8.0625 25.5312C6.99335 25.5312 5.96798 25.1065 5.21198 24.3505C4.45597 23.5945 4.03125 22.5692 4.03125 21.5C4.03125 20.4308 4.45597 19.4055 5.21198 18.6495C5.96798 17.8935 6.99335 17.4688 8.0625 17.4688C9.13165 17.4688 10.157 17.8935 10.913 18.6495C11.669 19.4055 12.0938 20.4308 12.0938 21.5C12.0938 22.5692 11.669 23.5945 10.913 24.3505C10.157 25.1065 9.13165 25.5312 8.0625 25.5312ZM21.5 25.5312C20.4308 25.5312 19.4055 25.1065 18.6495 24.3505C17.8935 23.5945 17.4688 22.5692 17.4688 21.5C17.4688 20.4308 17.8935 19.4055 18.6495 18.6495C19.4055 17.8935 20.4308 17.4688 21.5 17.4688C22.5692 17.4688 23.5945 17.8935 24.3505 18.6495C25.1065 19.4055 25.5312 20.4308 25.5312 21.5C25.5312 22.5692 25.1065 23.5945 24.3505 24.3505C23.5945 25.1065 22.5692 25.5312 21.5 25.5312ZM34.9375 25.5312C33.8683 25.5312 32.843 25.1065 32.087 24.3505C31.331 23.5945 30.9062 22.5692 30.9062 21.5C30.9062 20.4308 31.331 19.4055 32.087 18.6495C32.843 17.8935 33.8683 17.4688 34.9375 17.4688C36.0067 17.4688 37.032 17.8935 37.788 18.6495C38.544 19.4055 38.9688 20.4308 38.9688 21.5C38.9688 22.5692 38.544 23.5945 37.788 24.3505C37.032 25.1065 36.0067 25.5312 34.9375 25.5312Z" fill="black"/>
</svg>
