<svg width="43" height="43" viewBox="0 0 43 43" fill="none" xmlns="http://www.w3.org/2000/svg">
<path d="M8.15444 30.0827V37.4516L15.7676 35.6311L21.4999 41.1794L27.2322 35.6311L34.8455 37.4516V30.0827L42.5482 28.1754L38.6968 20.8065L42.5482 13.4375L34.8455 11.5302V4.16129L27.2322 5.98186L21.4999 0.433472L15.7676 5.98186L8.15444 4.16129V11.5302L0.45166 13.4375L4.30305 20.8065L0.45166 28.1754L8.15444 30.0827ZM7.7066 19.1593L6.00482 15.7782L9.05011 15.0847C9.94578 14.9113 10.6474 14.4923 11.1549 13.8276C11.6625 13.163 11.9163 12.3972 11.9163 11.5302V8.92944L14.7824 9.70968H15.7676C16.7827 9.70968 17.6784 9.33401 18.4547 8.58267L21.4999 5.63508L24.5452 8.58267C25.3215 9.33401 26.2171 9.70968 27.2322 9.70968C27.5905 9.70968 27.9189 9.65189 28.2175 9.53629L31.0836 8.92944V11.5302C31.0836 12.3972 31.3374 13.163 31.845 13.8276C32.3525 14.4923 33.0541 14.9113 33.9498 15.0847L36.9951 15.7782L35.2933 19.1593C34.6962 20.2574 34.6962 21.3555 35.2933 22.4536L36.9951 25.8347L33.9498 26.5282C33.0541 26.7016 32.3525 27.1206 31.845 27.7853C31.3374 28.4499 31.0836 29.2157 31.0836 30.0827V32.6835L28.2175 31.9032H27.2322C26.2171 31.9032 25.3215 32.2789 24.5452 33.0302L21.4999 35.9778L18.4547 33.0302C17.6784 32.2789 16.7827 31.9032 15.7676 31.9032C15.4094 31.9032 15.081 31.961 14.7824 32.0766L11.9163 32.6835V30.0827C11.9163 29.2157 11.6625 28.4499 11.1549 27.7853C10.6474 27.1206 9.94578 26.7016 9.05011 26.5282L6.00482 25.8347L7.7066 22.4536C8.30372 21.3555 8.30372 20.2574 7.7066 19.1593ZM19.619 27.1351L28.5758 18.379C29.4117 17.5699 29.4117 16.703 28.5758 15.7782C27.6801 15.0269 26.7844 15.0269 25.8887 15.7782L19.619 21.9335L17.1112 19.5061C16.2155 18.7547 15.3198 18.7547 14.4241 19.5061C13.6479 20.373 13.6479 21.2399 14.4241 22.1069L19.619 27.1351Z" fill="black"/>
</svg>
