<svg width="43" height="43" viewBox="0 0 43 43" fill="none" xmlns="http://www.w3.org/2000/svg">
<path d="M17.5816 28.4947L16.125 33.5937L14.6684 28.4947C14.2919 27.1775 13.586 25.9781 12.6174 25.0094C11.6487 24.0408 10.4493 23.3349 9.13213 22.9584L4.03125 21.5L9.13033 20.0434C10.4475 19.6669 11.6469 18.961 12.6156 17.9924C13.5842 17.0237 14.2901 15.8243 14.6666 14.5071L16.125 9.40625L17.5816 14.5053C17.9581 15.8225 18.664 17.0219 19.6326 17.9906C20.6013 18.9592 21.8007 19.6651 23.1179 20.0416L28.2187 21.5L23.1197 22.9566C21.8025 23.3331 20.6031 24.039 19.6344 25.0076C18.6658 25.9763 17.9599 27.1757 17.5834 28.4929L17.5816 28.4947ZM32.714 15.6144L32.25 17.4687L31.786 15.6144C31.5203 14.5512 30.9708 13.5802 30.196 12.8051C29.4213 12.03 28.4505 11.4801 27.3874 11.214L25.5312 10.75L27.3874 10.286C28.4505 10.0199 29.4213 9.46996 30.196 8.6949C30.9708 7.91985 31.5203 6.94882 31.786 5.88563L32.25 4.03125L32.714 5.88563C32.9798 6.94904 33.5296 7.92022 34.3047 8.6953C35.0798 9.47037 36.051 10.0202 37.1144 10.286L38.9687 10.75L37.1144 11.214C36.051 11.4798 35.0798 12.0296 34.3047 12.8047C33.5296 13.5798 32.9798 14.551 32.714 15.6144ZM30.2684 36.8492L29.5625 38.9687L28.8566 36.8492C28.6587 36.2555 28.3253 35.716 27.8827 35.2735C27.4402 34.831 26.9007 34.4976 26.307 34.2997L24.1875 33.5937L26.307 32.8878C26.9007 32.6899 27.4402 32.3565 27.8827 31.914C28.3253 31.4715 28.6587 30.932 28.8566 30.3383L29.5625 28.2187L30.2684 30.3383C30.4663 30.932 30.7997 31.4715 31.2423 31.914C31.6848 32.3565 32.2243 32.6899 32.818 32.8878L34.9375 33.5937L32.818 34.2997C32.2243 34.4976 31.6848 34.831 31.2423 35.2735C30.7997 35.716 30.4663 36.2555 30.2684 36.8492V36.8492Z" stroke="black" stroke-width="2.6875" stroke-linecap="round" stroke-linejoin="round"/>
</svg>
