<svg width="25" height="25" viewBox="0 0 25 25" fill="none" xmlns="http://www.w3.org/2000/svg">
<path d="M12.5 20.3125C14.572 20.3125 16.5591 19.4894 18.0243 18.0243C19.4894 16.5591 20.3125 14.572 20.3125 12.5C20.3125 10.428 19.4894 8.44086 18.0243 6.97573C16.5591 5.5106 14.572 4.6875 12.5 4.6875C10.428 4.6875 8.44086 5.5106 6.97573 6.97573C5.5106 8.44086 4.6875 10.428 4.6875 12.5C4.6875 14.572 5.5106 16.5591 6.97573 18.0243C8.44086 19.4894 10.428 20.3125 12.5 20.3125V20.3125ZM12.5 21.875C11.2689 21.875 10.0498 21.6325 8.91234 21.1614C7.77492 20.6902 6.74142 19.9997 5.87087 19.1291C5.00032 18.2586 4.30977 17.2251 3.83863 16.0877C3.36749 14.9502 3.125 13.7311 3.125 12.5C3.125 11.2689 3.36749 10.0498 3.83863 8.91234C4.30977 7.77492 5.00032 6.74142 5.87087 5.87087C6.74142 5.00032 7.77492 4.30977 8.91234 3.83863C10.0498 3.36749 11.2689 3.125 12.5 3.125C14.9864 3.125 17.371 4.11272 19.1291 5.87087C20.8873 7.62903 21.875 10.0136 21.875 12.5C21.875 14.9864 20.8873 17.371 19.1291 19.1291C17.371 20.8873 14.9864 21.875 12.5 21.875Z" fill="black"/>
<path d="M7.1359 20.1312L8.48902 20.9125L7.31715 22.9422C7.26623 23.0317 7.19809 23.1103 7.11666 23.1735C7.03523 23.2366 6.94212 23.283 6.84269 23.31C6.74326 23.337 6.63947 23.344 6.5373 23.3308C6.43513 23.3175 6.33659 23.2841 6.24736 23.2326C6.15813 23.1811 6.07998 23.1124 6.01739 23.0306C5.95481 22.9487 5.90903 22.8553 5.8827 22.7557C5.85636 22.6561 5.84999 22.5523 5.86395 22.4502C5.87791 22.3481 5.91192 22.2498 5.96402 22.1609L7.1359 20.1312ZM17.864 20.1312L16.5109 20.9125L17.6828 22.9422C17.7337 23.0317 17.8018 23.1103 17.8833 23.1735C17.9647 23.2366 18.0578 23.283 18.1572 23.31C18.2567 23.337 18.3605 23.344 18.4626 23.3308C18.5648 23.3175 18.6633 23.2841 18.7526 23.2326C18.8418 23.1811 18.9199 23.1124 18.9825 23.0306C19.0451 22.9487 19.0909 22.8553 19.1172 22.7557C19.1436 22.6561 19.1499 22.5523 19.136 22.4502C19.122 22.3481 19.088 22.2498 19.0359 22.1609L17.864 20.1312ZM12.5 12.5H16.4062C16.6134 12.5 16.8121 12.5823 16.9586 12.7288C17.1052 12.8753 17.1875 13.074 17.1875 13.2812C17.1875 13.4884 17.1052 13.6871 16.9586 13.8337C16.8121 13.9802 16.6134 14.0625 16.4062 14.0625H11.7187C11.5115 14.0625 11.3128 13.9802 11.1663 13.8337C11.0198 13.6871 10.9375 13.4884 10.9375 13.2812V7.81248C10.9375 7.60528 11.0198 7.40656 11.1663 7.26005C11.3128 7.11354 11.5115 7.03123 11.7187 7.03123C11.9259 7.03123 12.1246 7.11354 12.2711 7.26005C12.4177 7.40656 12.5 7.60528 12.5 7.81248V12.5ZM2.20934 7.62341C1.71075 6.87209 1.48745 5.97141 1.57732 5.0742C1.66718 4.17698 2.06469 3.33848 2.70238 2.70097C3.34007 2.06346 4.17869 1.6662 5.07593 1.57659C5.97317 1.48698 6.87378 1.71055 7.62496 2.20935L6.48121 3.3531C6.04386 3.14422 5.5525 3.07607 5.07481 3.15803C4.59711 3.23999 4.15657 3.46803 3.81386 3.81075C3.47114 4.15346 3.2431 4.594 3.16114 5.07169C3.07918 5.54939 3.14733 6.04074 3.35621 6.4781L2.2109 7.62341H2.20934ZM22.6015 7.62341C23.0994 6.87221 23.3222 5.97194 23.2322 5.07522C23.1422 4.1785 22.7449 3.34049 22.1077 2.70322C21.4704 2.06596 20.6324 1.66865 19.7357 1.57864C18.8389 1.48863 17.9387 1.71146 17.1875 2.20935L18.3312 3.3531C18.7686 3.14422 19.2599 3.07607 19.7376 3.15803C20.2153 3.23999 20.6559 3.46803 20.9986 3.81075C21.3413 4.15346 21.5693 4.594 21.6513 5.07169C21.7332 5.54939 21.6651 6.04074 21.4562 6.4781L22.6015 7.62341Z" fill="black"/>
</svg>
