<svg width="43" height="43" viewBox="0 0 43 43" fill="none" xmlns="http://www.w3.org/2000/svg">
<path d="M21.5 34.9375C25.0638 34.9375 28.4817 33.5218 31.0017 31.0017C33.5218 28.4817 34.9375 25.0638 34.9375 21.5C34.9375 17.9362 33.5218 14.5183 31.0017 11.9983C28.4817 9.47823 25.0638 8.0625 21.5 8.0625C17.9362 8.0625 14.5183 9.47823 11.9983 11.9983C9.47823 14.5183 8.0625 17.9362 8.0625 21.5C8.0625 25.0638 9.47823 28.4817 11.9983 31.0017C14.5183 33.5218 17.9362 34.9375 21.5 34.9375ZM21.5 37.625C19.3824 37.625 17.2856 37.2079 15.3292 36.3976C13.3729 35.5872 11.5952 34.3994 10.0979 32.9021C8.60056 31.4048 7.4128 29.6271 6.60244 27.6708C5.79209 25.7144 5.375 23.6176 5.375 21.5C5.375 19.3824 5.79209 17.2856 6.60244 15.3292C7.4128 13.3729 8.60056 11.5952 10.0979 10.0979C11.5952 8.60056 13.3729 7.4128 15.3292 6.60244C17.2856 5.79209 19.3824 5.375 21.5 5.375C25.7766 5.375 29.8781 7.07388 32.9021 10.0979C35.9261 13.1219 37.625 17.2234 37.625 21.5C37.625 25.7766 35.9261 29.8781 32.9021 32.9021C29.8781 35.9261 25.7766 37.625 21.5 37.625Z" fill="black"/>
<path d="M12.2738 34.6258L14.6012 35.9695L12.5855 39.4606C12.498 39.6146 12.3808 39.7498 12.2407 39.8584C12.1006 39.967 11.9405 40.0468 11.7695 40.0932C11.5984 40.1397 11.4199 40.1518 11.2442 40.129C11.0685 40.1061 10.899 40.0487 10.7455 39.9601C10.592 39.8715 10.4576 39.7534 10.35 39.6127C10.2423 39.4719 10.1636 39.3112 10.1183 39.1399C10.073 38.9686 10.062 38.79 10.086 38.6144C10.11 38.4388 10.1685 38.2697 10.2582 38.1168L12.2738 34.6258ZM30.7262 34.6258L28.3988 35.9695L30.4144 39.4606C30.502 39.6146 30.6192 39.7498 30.7593 39.8584C30.8993 39.967 31.0595 40.0468 31.2305 40.0932C31.4015 40.1397 31.58 40.1518 31.7558 40.129C31.9315 40.1061 32.101 40.0487 32.2544 39.9601C32.4079 39.8715 32.5423 39.7534 32.65 39.6127C32.7576 39.4719 32.8364 39.3112 32.8817 39.1399C32.927 38.9686 32.9379 38.79 32.9139 38.6144C32.8899 38.4388 32.8314 38.2697 32.7418 38.1168L30.7262 34.6258ZM21.5 21.5H28.2187C28.5751 21.5 28.9169 21.6416 29.1689 21.8936C29.4209 22.1456 29.5625 22.4874 29.5625 22.8438C29.5625 23.2001 29.4209 23.5419 29.1689 23.7939C28.9169 24.0459 28.5751 24.1875 28.2187 24.1875H20.1562C19.7998 24.1875 19.4581 24.0459 19.2061 23.7939C18.9541 23.5419 18.8125 23.2001 18.8125 22.8438V13.4375C18.8125 13.0811 18.9541 12.7393 19.2061 12.4873C19.4581 12.2353 19.7998 12.0938 20.1562 12.0938C20.5126 12.0938 20.8544 12.2353 21.1064 12.4873C21.3584 12.7393 21.5 13.0811 21.5 13.4375V21.5ZM3.8001 13.1123C2.94254 11.82 2.55846 10.2709 2.71303 8.72767C2.8676 7.18446 3.5513 5.74225 4.64814 4.64573C5.74497 3.54921 7.18738 2.86592 8.73064 2.7118C10.2739 2.55767 11.823 2.9422 13.115 3.80014L11.1477 5.76739C10.3955 5.40812 9.55034 5.2909 8.72871 5.43187C7.90708 5.57284 7.14935 5.96506 6.55988 6.55454C5.97041 7.14401 5.57818 7.90173 5.43721 8.72337C5.29624 9.545 5.41346 10.3901 5.77273 11.1424L3.80279 13.1123H3.8001ZM38.8747 13.1123C39.731 11.8202 40.1143 10.2718 39.9595 8.72944C39.8047 7.18708 39.1213 5.74569 38.0252 4.6496C36.9291 3.5535 35.4877 2.87013 33.9454 2.71532C32.403 2.5605 30.8546 2.94376 29.5625 3.80014L31.5297 5.76739C32.282 5.40812 33.1271 5.2909 33.9487 5.43187C34.7704 5.57284 35.5281 5.96506 36.1176 6.55454C36.7071 7.14401 37.0993 7.90173 37.2402 8.72337C37.3812 9.545 37.264 10.3901 36.9047 11.1424L38.8747 13.1123Z" fill="black"/>
</svg>
