<svg width="43" height="43" viewBox="0 0 43 43" fill="none" xmlns="http://www.w3.org/2000/svg">
<path fill-rule="evenodd" clip-rule="evenodd" d="M30.1026 5.21294C30.1338 5.25042 30.163 5.29102 30.189 5.33162L30.19 5.33371L30.1932 5.33891L30.2025 5.35453L30.2359 5.40971C30.4267 5.72761 30.611 6.04938 30.7887 6.37481C31.1427 7.02238 31.6122 7.93647 32.0828 9.01713C33.0146 11.1514 33.9932 14.0321 33.9932 16.7765C33.9932 19.8821 31.8954 21.6041 30.0505 22.4932C29.1306 22.9299 28.1597 23.2499 27.1604 23.4458C25.6218 24.8739 23.5992 25.6659 21.5 25.6623C20.248 25.6637 19.012 25.3823 17.884 24.8391C16.756 24.296 15.7653 23.5051 14.9858 22.5254L14.9379 22.5213C14.7115 22.5007 14.4861 22.4708 14.2622 22.4318C13.5539 22.312 12.8644 22.0998 12.2112 21.8008C11.4512 21.4469 10.6433 20.9034 10.0249 20.0695C9.39713 19.2231 9.00671 18.1341 9.00671 16.7754C9.00671 14.207 10.2581 11.2888 11.4075 9.12124C12.0991 7.82173 12.866 6.56367 13.7042 5.35349L13.7375 5.30664L13.75 5.28686C13.8813 5.0879 14.0249 4.89735 14.18 4.71633C14.5861 4.2476 15.0475 3.82984 15.5542 3.47221C16.8181 2.57374 18.765 1.71899 21.5572 1.71899C24.3422 1.71899 26.4629 2.56958 27.8913 3.42953C28.6044 3.8595 29.1448 4.29052 29.5123 4.62055C29.7129 4.80138 29.9041 4.9925 30.0849 5.19316L30.0953 5.20565L30.1005 5.21086L30.1016 5.21294H30.1026ZM15.5001 6.41645C15.4846 6.44286 15.4679 6.46857 15.4501 6.4935L15.448 6.49558L15.4397 6.50599L15.4053 6.55596C15.1874 6.86813 14.9754 7.18434 14.7692 7.50441C14.3528 8.14989 13.7989 9.05565 13.2471 10.0968C12.1165 12.2289 11.0889 14.7567 11.0889 16.7765C11.0889 17.7124 11.3492 18.361 11.6969 18.8306C12.0551 19.3116 12.5496 19.6635 13.091 19.9154C13.3481 20.0351 13.6084 20.1299 13.8562 20.2038C13.6584 19.3103 13.5093 18.4066 13.4095 17.4969C13.2919 16.3788 13.2575 15.1388 13.4678 14.0425C13.675 12.9681 14.1633 11.8135 15.2814 11.2128C16.7692 10.4143 19.2866 9.34612 21.5062 8.61006C22.6129 8.24255 23.6925 7.94167 24.5556 7.80424C24.9793 7.73761 25.4145 7.70013 25.7976 7.73865C26.0975 7.76989 26.719 7.88337 27.0626 8.44661C29.8527 12.4746 29.8944 16.1653 29.1875 18.8608C28.9834 19.6395 28.719 20.3308 28.4462 20.918C28.6835 20.8279 28.9169 20.7279 29.1458 20.6181C30.6554 19.8894 31.911 18.7296 31.911 16.7765C31.911 14.4631 31.0677 11.8979 30.1744 9.84897C29.6982 8.76067 29.1609 7.70017 28.5649 6.67257L28.467 6.50703L28.442 6.481L28.4306 6.46851C28.3309 6.36506 28.2275 6.26539 28.1203 6.16971C27.7168 5.8109 27.2804 5.49091 26.8169 5.21398C25.654 4.51228 23.8997 3.8012 21.5572 3.8012C19.221 3.8012 17.6926 4.50811 16.7619 5.17025C16.3932 5.42969 16.0573 5.73277 15.7614 6.07289C15.6696 6.17958 15.5841 6.29151 15.5053 6.40812L15.5001 6.41645ZM30.189 5.33162L29.3062 5.88341L30.189 5.33162ZM29.3062 5.88341L30.1026 5.21294L29.3062 5.88341ZM16.0258 20.3485C15.7768 19.3389 15.5945 18.314 15.4803 17.2804C15.371 16.2466 15.3574 15.2398 15.5115 14.435C15.6708 13.6105 15.9592 13.2117 16.2653 13.0472C17.626 12.3164 20.0299 11.293 22.1611 10.5861C23.2292 10.2321 24.1829 9.97182 24.8804 9.86147C25.1438 9.81982 25.3375 9.8042 25.4686 9.80525C27.757 13.2076 27.733 16.1945 27.1719 18.3329C26.9293 19.2529 26.5603 20.1347 26.0756 20.9534C25.8974 21.2545 25.701 21.5445 25.4874 21.8217L25.4801 21.831L25.4582 21.8581L25.4541 21.8623L25.453 21.8633C25.3332 22.0032 25.2528 22.1724 25.2198 22.3537C24.504 22.8849 23.6828 23.2567 22.8114 23.4441C21.94 23.6315 21.0385 23.6302 20.1677 23.4402C19.2968 23.2503 18.4767 22.8761 17.7624 22.3428C17.0482 21.8095 16.4564 21.1295 16.0269 20.3485H16.0258ZM25.6435 9.81878C25.6343 9.81765 25.6253 9.81555 25.6165 9.81253C25.6258 9.81324 25.6349 9.81535 25.6435 9.81878Z" fill="black"/>
<path fill-rule="evenodd" clip-rule="evenodd" d="M15.1638 26.5545C14.9431 26.1152 14.6714 25.5728 14.2123 25.6779C8.58615 26.9585 2.76013 30.6565 2.76013 34.5866V40.2398H40.2399V34.5866C40.2399 31.4904 36.6251 28.5399 32.341 26.7992L32.3264 26.7711L32.3212 26.7607L32.2869 26.7773C31.1489 26.3192 29.9642 25.9444 28.7877 25.6779C28.264 25.5582 27.7227 26.2786 27.4863 26.7294H15.2534C15.223 26.6714 15.1931 26.6131 15.1638 26.5545ZM29.2073 27.9298C29.6622 28.0548 30.1151 28.1974 30.5618 28.3535C30.5743 28.7096 30.5472 29.1292 30.4889 29.5581C30.4295 30.0022 30.3349 30.4409 30.2057 30.8699H28.7877C28.5944 30.87 28.405 30.9239 28.2406 31.0256C28.0762 31.1273 27.9434 31.2727 27.857 31.4456L26.8159 33.5278C26.7434 33.6723 26.7056 33.8316 26.7055 33.9932V36.0754C26.7055 36.3515 26.8152 36.6163 27.0104 36.8116C27.2057 37.0068 27.4705 37.1165 27.7466 37.1165H29.8288V35.0343H28.7877V34.2389L29.4311 32.9521H32.3087L32.9521 34.2389V35.0343H31.911V37.1165H33.9932C34.2694 37.1165 34.5342 37.0068 34.7294 36.8116C34.9247 36.6163 35.0343 36.3515 35.0343 36.0754V33.9932C35.0342 33.8316 34.9964 33.6723 34.924 33.5278L33.8829 31.4456C33.7965 31.2727 33.6636 31.1273 33.4993 31.0256C33.3349 30.9239 33.1454 30.87 32.9521 30.8699H32.3629C32.4915 30.3193 32.5778 29.7596 32.6211 29.1958C33.6361 29.6747 34.5794 30.2244 35.3966 30.8199C37.3976 32.2816 38.1577 33.6476 38.1577 34.5866V38.1576H4.84234V34.5866C4.84234 33.6465 5.60234 32.2806 7.60335 30.821C8.60905 30.087 9.80944 29.4228 11.0962 28.8731C11.132 29.7027 11.2651 30.5253 11.4929 31.3238L11.5012 31.353C10.8788 31.7467 10.4156 32.3478 10.1933 33.0499C9.97109 33.7521 10.0041 34.5102 10.2866 35.1904C10.5691 35.8706 11.0829 36.429 11.7372 36.7672C12.3915 37.1053 13.1442 37.2013 13.8624 37.0383C14.5807 36.8752 15.2182 36.4636 15.6624 35.8762C16.1066 35.2887 16.3289 34.5631 16.29 33.8277C16.2511 33.0922 15.9536 32.3941 15.45 31.8567C14.9464 31.3193 14.269 30.9772 13.5376 30.8907C13.4046 30.4551 13.3071 30.0095 13.2461 29.5581C13.1882 29.1544 13.1641 28.7466 13.1743 28.339C13.1773 28.2611 13.1825 28.1833 13.1899 28.1058C13.3148 28.0672 13.4398 28.0298 13.5647 27.9944L13.9968 28.8127H28.743L29.2073 27.9298ZM13.1712 35.0499C13.7313 35.0499 14.2123 34.5918 14.2123 33.9932C14.2123 33.3956 13.7313 32.9365 13.1712 32.9365C12.6111 32.9365 12.1301 33.3946 12.1301 33.9932C12.1301 34.5908 12.6111 35.0499 13.1712 35.0499Z" fill="black"/>
</svg>
