<svg width="25" height="25" viewBox="0 0 25 25" fill="none" xmlns="http://www.w3.org/2000/svg">
<path d="M20.9594 18.6426C20.4989 17.5517 19.8305 16.5608 18.9916 15.7251C18.1553 14.887 17.1646 14.2188 16.0742 13.7573C16.0644 13.7524 16.0546 13.75 16.0449 13.7451C17.5659 12.6465 18.5546 10.8569 18.5546 8.83789C18.5546 5.49316 15.8447 2.7832 12.4999 2.7832C9.15521 2.7832 6.44525 5.49316 6.44525 8.83789C6.44525 10.8569 7.43402 12.6465 8.95502 13.7476C8.94525 13.7524 8.93549 13.7549 8.92572 13.7598C7.83197 14.2212 6.85053 14.8828 6.00824 15.7275C5.17013 16.5639 4.5019 17.5546 4.04047 18.645C3.58715 19.7125 3.34267 20.857 3.32025 22.0166C3.3196 22.0427 3.32417 22.0686 3.33369 22.0928C3.34322 22.1171 3.3575 22.1392 3.3757 22.1579C3.3939 22.1765 3.41566 22.1914 3.43968 22.2015C3.4637 22.2116 3.4895 22.2168 3.51556 22.2168H4.98041C5.08783 22.2168 5.17328 22.1313 5.17572 22.0264C5.22455 20.1416 5.98138 18.3765 7.31927 17.0386C8.70355 15.6543 10.5419 14.8926 12.4999 14.8926C14.4579 14.8926 16.2963 15.6543 17.6806 17.0386C19.0185 18.3765 19.7753 20.1416 19.8242 22.0264C19.8266 22.1338 19.912 22.2168 20.0195 22.2168H21.4843C21.5104 22.2168 21.5362 22.2116 21.5602 22.2015C21.5842 22.1914 21.606 22.1765 21.6242 22.1579C21.6424 22.1392 21.6567 22.1171 21.6662 22.0928C21.6757 22.0686 21.6803 22.0427 21.6796 22.0166C21.6552 20.8496 21.4135 19.7144 20.9594 18.6426V18.6426ZM12.4999 13.0371C11.3793 13.0371 10.3246 12.6001 9.53119 11.8066C8.73773 11.0132 8.30072 9.9585 8.30072 8.83789C8.30072 7.71729 8.73773 6.6626 9.53119 5.86914C10.3246 5.07568 11.3793 4.63867 12.4999 4.63867C13.6205 4.63867 14.6752 5.07568 15.4687 5.86914C16.2621 6.6626 16.6992 7.71729 16.6992 8.83789C16.6992 9.9585 16.2621 11.0132 15.4687 11.8066C14.6752 12.6001 13.6205 13.0371 12.4999 13.0371Z" fill="black"/>
</svg>
